<?xml version="1.0" encoding="UTF-8"?>
<svg id="Capa_2" data-name="Capa 2" xmlns="http://www.w3.org/2000/svg" viewBox="0 0 843.66 119.76">
  <defs>
    <style>
      .cls-1 {
        fill: #005f7b;
      }

      .cls-1, .cls-2 {
        stroke-width: 0px;
      }

      .cls-2 {
        fill: #003263;
      }
    </style>
  </defs>
  <g id="Capa_1-2" data-name="Capa 1">
    <g>
      <path class="cls-1" d="M90.8,51.9c.12-3.98-2.25-4.11-4.28-3.97-2.53.18-6.15-1.01-6.06,3.49.12,6.05-.52,12.11-.68,18.16-.13,4.95-1.2,9.39-6.05,11.79-4.98,2.47-9.06,0-12.95-2.79-6.35-4.54-12.65-9.14-19.8-14.33-1.11-.81-2.67-.05-2.73,1.32-.35,8.44-.51,16.01-.86,23.87,2.85,1.89,5.84,3.84,9.17,4.91.19-4.54.45-9.21.67-14.19,4.44,3.14,7.96,5.83,11.67,8.21,12.07,7.77,25.68,2.82,29.74-10.87,2.48-8.36,1.88-17.04,2.15-25.61Z"/>
      <path class="cls-1" d="M74.71,42.1c-.25,9.93-.74,19.86-1.24,29.79-.07,1.47-1.21,2.71-2.68,2.79-.79.04-1.37-.26-2.13-.81-12.35-8.87-24.66-17.79-37.92-27.36-.5-.36-1.21-.02-1.24.6-.43,10.19-.86,20.03-1.26,29.71-.03.8-1.11,1.04-1.48.33-2.94-5.7-4.49-12.22-4.2-19.09.36-8.64,3.56-16.48,8.66-22.68.26-.32.73-.37,1.06-.13,8.82,6.45,17.62,12.92,26.47,19.34,1.24.9,2.29,2.05,4.11.99,1.43-.83.91-1.94.99-3.33.34-6.49.7-12.98.78-19.48.04-3.24,1.13-4.25,4.46-4.17,1.19.03,2.02.07,2.89.09,1.73.04,3.1,1.5,3.04,3.23l-.33,10.18Z"/>
      <path class="cls-2" d="M52.79.02C25.18,3.25,3.29,25.14.03,52.73c-.17,1.41.95,2.64,2.37,2.64h9.71c1.19,0,2.19-.89,2.35-2.07,2.82-20.17,18.75-36.14,38.91-39.01,1.18-.17,2.06-1.16,2.06-2.35V2.38c0-1.41-1.23-2.53-2.63-2.37Z"/>
      <path class="cls-2" d="M53.36,105.13c-20.08-2.86-35.96-18.71-38.87-38.77-.17-1.18-1.17-2.05-2.35-2.05H2.38c-1.41,0-2.53,1.23-2.37,2.63,3.22,27.64,25.14,49.57,52.77,52.81,1.4.16,2.63-.95,2.63-2.37v-9.9c0-1.19-.88-2.19-2.06-2.35Z"/>
      <path class="cls-2" d="M105.28,66.35c-2.91,20.06-18.8,35.91-38.87,38.77-1.18.17-2.06,1.16-2.06,2.35v9.9c0,1.41,1.23,2.53,2.63,2.37,27.63-3.24,49.55-25.17,52.77-52.81.16-1.4-.95-2.63-2.37-2.63h-9.75c-1.19,0-2.18.88-2.35,2.05Z"/>
      <path class="cls-2" d="M388.5,30.74v61.25c0,.82-.66,1.48-1.48,1.48h-7.57c-.82,0-1.48-.66-1.48-1.48v-35.53c0-1.6-2.18-2.06-2.84-.6l-16.36,36.73c-.24.53-.77.88-1.35.88h-5.38c-.58,0-1.11-.34-1.35-.88l-16.45-36.77c-.65-1.46-2.83-.99-2.83.61v35.56c0,.82-.66,1.48-1.48,1.48h-7.57c-.82,0-1.48-.66-1.48-1.48V30.74c0-.82.66-1.48,1.48-1.48h8.92c.58,0,1.11.34,1.35.88l20.8,46.45c.52,1.17,2.18,1.17,2.71,0l20.71-46.44c.24-.53.77-.88,1.35-.88h8.83c.82,0,1.48.66,1.48,1.48Z"/>
      <path class="cls-2" d="M412.51,30.74v61.25c0,.82-.66,1.48-1.48,1.48h-7.57c-.82,0-1.48-.66-1.48-1.48V30.74c0-.82.66-1.48,1.48-1.48h7.57c.82,0,1.48.66,1.48,1.48Z"/>
      <path class="cls-2" d="M477.27,93.46h-8.24c-.5,0-.96-.25-1.24-.66l-28.49-43.1c-.81-1.23-2.72-.65-2.72.82v41.47c0,.82-.66,1.48-1.48,1.48h-7.55c-.82,0-1.48-.66-1.48-1.48V30.74c0-.82.66-1.48,1.48-1.48h8.24c.5,0,.96.25,1.24.66l28.49,43.02c.81,1.22,2.72.65,2.72-.82V30.74c0-.82.66-1.48,1.48-1.48h7.55c.82,0,1.48.66,1.48,1.48v61.25c0,.82-.66,1.48-1.48,1.48Z"/>
      <path class="cls-2" d="M529.81,80.36h-24.75c-.63,0-1.19.4-1.4.99l-3.92,11.12c-.21.59-.77.99-1.4.99h-7.83c-1.03,0-1.74-1.02-1.4-1.98l21.91-61.25c.21-.59.77-.98,1.4-.98h10.09c.63,0,1.18.39,1.4.98l21.91,61.25c.35.97-.37,1.98-1.4,1.98h-7.92c-.63,0-1.19-.4-1.4-.99l-3.92-11.12c-.21-.59-.77-.99-1.4-.99ZM527.22,69.81l-8.34-23.85c-.46-1.32-2.33-1.32-2.8,0l-8.42,23.85c-.34.96.37,1.98,1.4,1.98h16.76c1.02,0,1.74-1.01,1.4-1.97Z"/>
      <path class="cls-1" d="M613.16,61.03c-3.6,3.36-9,5.04-16.2,5.04h-11.43c-.82,0-1.48.66-1.48,1.48v24.32c0,.82-.66,1.48-1.48,1.48h-3.44c-.82,0-1.48-.66-1.48-1.48V30.84c0-.82.66-1.48,1.48-1.48h17.83c7.14,0,12.53,1.68,16.16,5.04,3.63,3.36,5.45,7.81,5.45,13.37s-1.8,9.92-5.4,13.27ZM611.97,47.75c0-4.27-1.19-7.51-3.57-9.7s-6.2-3.3-11.44-3.3h-11.43c-.82,0-1.48.66-1.48,1.48v22.85c0,.82.66,1.48,1.48,1.48h11.43c10.01,0,15.01-4.27,15.01-12.82Z"/>
      <path class="cls-2" d="M670.42,31.52l-19.2,36.6c-.11.21-.17.45-.17.69v23.05c0,.82-.66,1.48-1.48,1.48h-3.44c-.82,0-1.48-.66-1.48-1.48v-23.05c0-.24-.06-.48-.17-.69l-19.37-36.59c-.52-.99.19-2.18,1.31-2.18h3.86c.56,0,1.07.32,1.32.82l14.92,29.76c.55,1.09,2.11,1.09,2.65,0l14.84-29.76c.25-.5.76-.82,1.33-.82h3.77c1.11,0,1.83,1.18,1.31,2.17Z"/>
      <path class="cls-1" d="M743.88,30.74v61.12c0,.82-.66,1.48-1.48,1.48h-3.54c-.82,0-1.48-.66-1.48-1.48v-42.74c0-1.6-2.18-2.06-2.84-.6l-19.62,43.95c-.24.53-.77.88-1.35.88h-2.82c-.58,0-1.11-.34-1.35-.88l-19.62-43.79c-.65-1.46-2.83-.99-2.83.61v42.58c0,.82-.66,1.48-1.48,1.48h-3.54c-.82,0-1.48-.66-1.48-1.48V30.74c0-.82.66-1.48,1.48-1.48h4.43c.58,0,1.11.34,1.35.88l23.05,51.63c.52,1.17,2.18,1.17,2.71,0l23.05-51.63c.24-.53.77-.88,1.35-.88h4.52c.82,0,1.48.66,1.48,1.48Z"/>
      <path class="cls-1" d="M764.39,36.05v20.93c0,.82.66,1.48,1.48,1.48h21.29c.82,0,1.48.66,1.48,1.48v2.35c0,.82-.66,1.48-1.48,1.48h-21.29c-.82,0-1.48.66-1.48,1.48v21.3c0,.82.66,1.48,1.48,1.48h24.04c.82,0,1.48.66,1.48,1.48v2.35c0,.82-.66,1.48-1.48,1.48h-30.45c-.82,0-1.48-.66-1.48-1.48V30.74c0-.82.66-1.48,1.48-1.48h30.45c.82,0,1.48.66,1.48,1.48v2.35c0,.82-.66,1.48-1.48,1.48h-24.04c-.82,0-1.48.66-1.48,1.48Z"/>
      <path class="cls-1" d="M812.49,91.31c-3.15-1.44-5.62-3.45-7.42-6.03-1.47-2.11-2.38-4.42-2.73-6.93-.12-.9.56-1.71,1.47-1.71h3.76c.72,0,1.32.52,1.46,1.23.5,2.55,1.79,4.83,3.87,6.82,2.4,2.31,5.9,3.46,10.52,3.46,4.26,0,7.63-1.09,10.12-3.28,2.49-2.19,3.73-4.96,3.73-8.32,0-2.7-.69-4.87-2.07-6.52-1.38-1.65-3.09-2.88-5.13-3.69-2.04-.81-4.86-1.69-8.45-2.65-4.2-1.14-7.52-2.25-9.98-3.33-2.46-1.08-4.56-2.76-6.3-5.04-1.74-2.28-2.61-5.37-2.61-9.26,0-3.24.84-6.13,2.52-8.68,1.68-2.55,4.05-4.54,7.1-5.98,3.06-1.44,6.56-2.16,10.52-2.16,5.81,0,10.51,1.42,14.07,4.27,3.07,2.45,5.02,5.51,5.85,9.19.21.93-.49,1.83-1.44,1.83h-3.92c-.66,0-1.22-.45-1.39-1.09-.6-2.14-1.93-4.07-3.99-5.79-2.4-2.01-5.64-3.01-9.71-3.01-3.78,0-6.92,1.01-9.44,3.01-2.52,2.01-3.78,4.75-3.78,8.23,0,2.64.69,4.77,2.07,6.39,1.38,1.62,3.1,2.85,5.17,3.69,2.07.84,4.87,1.74,8.41,2.7,4.08,1.14,7.37,2.26,9.89,3.37,2.52,1.11,4.65,2.8,6.39,5.08,1.74,2.28,2.61,5.34,2.61,9.17,0,2.94-.78,5.73-2.34,8.36-1.56,2.64-3.87,4.77-6.92,6.39-3.06,1.62-6.72,2.43-10.97,2.43s-7.78-.72-10.93-2.16Z"/>
      <path class="cls-2" d="M223.19,72.94l-23.72-35.82-4.98-7.45c-.27-.26-.64-.42-1.02-.42h-8.24c-.82,0-1.48.66-1.48,1.48v61.25c0,.82.66,1.48,1.48,1.48h7.55c.82,0,1.48-.66,1.48-1.48v-41.47c0-1.47,1.91-2.04,2.72-.82l28.49,43.1c.27.42.74.66,1.24.66h8.24c.7,0,1.29-.49,1.44-1.14"/>
      <path class="cls-2" d="M236.42,50.4v-18.9c0-1.24-1.01-2.25-2.25-2.25h-6.02c-1.24,0-2.25,1.01-2.25,2.25v4.29c0,.92.27,1.82.78,2.58l8.33,12.46c.42.63,1.4.33,1.4-.43Z"/>
      <path class="cls-2" d="M303.64,45.89l-6.7,8.03c-.27.33-.39.76-.32,1.18.31,1.9.47,3.94.47,6.14,0,4.64-.72,8.64-2.16,11.99-1.44,3.35-3.5,5.91-6.17,7.67-2.68,1.76-5.92,2.65-9.74,2.65s-7-.88-9.7-2.65c-2.7-1.76-4.78-4.32-6.22-7.67-1.44-3.35-2.16-7.35-2.16-11.99s.72-8.71,2.16-12.03c1.44-3.32,3.51-5.85,6.22-7.58,2.7-1.73,5.94-2.6,9.7-2.6,3.29,0,6.17.65,8.63,1.94.61.32,1.36.17,1.8-.36l4.74-5.68c.6-.72.37-1.81-.47-2.24-.77-.4-1.57-.77-2.4-1.11-3.67-1.5-7.77-2.25-12.3-2.25s-8.63.75-12.3,2.25c-3.67,1.5-6.82,3.65-9.43,6.44-2.62,2.79-4.63,6.14-6.04,10.05-1.41,3.91-2.12,8.3-2.12,13.18s.71,9.2,2.12,13.14c1.41,3.94,3.42,7.32,6.04,10.14,2.61,2.82,5.76,4.98,9.43,6.48,3.67,1.5,7.77,2.25,12.3,2.25s8.63-.75,12.3-2.25c3.67-1.5,6.82-3.66,9.43-6.48,2.61-2.82,4.63-6.2,6.04-10.14,1.41-3.94,2.12-8.35,2.12-13.23s-.71-9.27-2.12-13.18c-.21-.58-.44-1.16-.68-1.71-.43-1.01-1.77-1.21-2.47-.37Z"/>
      <path class="cls-2" d="M297.47,31.18h1.95c.82,0,1.48.66,1.48,1.48v16.92c0,.82-.66,1.48-1.48,1.48h-1.63c-1,0-1.81-.81-1.81-1.81v-16.59c0-.82.66-1.48,1.48-1.48Z" transform="translate(106.91 -191.42) rotate(42.68)"/>
    </g>
  </g>
</svg>