<?xml version="1.0" encoding="UTF-8"?>
<svg id="Capa_2" data-name="Capa 2" xmlns="http://www.w3.org/2000/svg" viewBox="0 0 565.92 147.13">
  <defs>
    <style>
      .cls-1 {
        fill: #e8e9ee;
        stroke-width: 0px;
      }
    </style>
  </defs>
  <g id="Capa_1-2" data-name="Capa 1">
    <g>
      <path class="cls-1" d="M295.46,114.76c-3.49,3.25-8.72,4.88-15.7,4.88h-11.07c-.79,0-1.44.64-1.44,1.44v23.56c0,.79-.64,1.44-1.44,1.44h-3.34c-.79,0-1.44-.64-1.44-1.44v-59.12c0-.79.64-1.44,1.44-1.44h17.28c6.92,0,12.13,1.63,15.65,4.88,3.52,3.25,5.28,7.57,5.28,12.95s-1.74,9.61-5.23,12.86ZM294.31,101.9c0-4.14-1.15-7.27-3.46-9.4-2.31-2.13-6-3.19-11.09-3.19h-11.07c-.79,0-1.44.64-1.44,1.44v22.14c0,.79.64,1.44,1.44,1.44h11.07c9.7,0,14.54-4.14,14.54-12.42Z"/>
      <path class="cls-1" d="M350.93,86.17l-18.6,35.45c-.11.21-.16.43-.16.67v22.33c0,.79-.64,1.44-1.44,1.44h-3.34c-.79,0-1.44-.64-1.44-1.44v-22.33c0-.23-.06-.46-.17-.67l-18.76-35.45c-.51-.96.19-2.11,1.27-2.11h3.74c.54,0,1.04.31,1.28.79l14.46,28.83c.53,1.06,2.04,1.06,2.57,0l14.37-28.83c.24-.49.74-.8,1.28-.8h3.65c1.08,0,1.77,1.15,1.27,2.1Z"/>
      <path class="cls-1" d="M422.1,85.41v59.21c0,.79-.64,1.44-1.44,1.44h-3.43c-.79,0-1.44-.64-1.44-1.44v-41.4c0-1.55-2.12-2-2.75-.59l-19.01,42.58c-.23.52-.74.85-1.31.85h-2.73c-.57,0-1.08-.33-1.31-.85l-19.01-42.42c-.63-1.41-2.75-.96-2.75.59v41.25c0,.79-.64,1.44-1.44,1.44h-3.43c-.79,0-1.44-.64-1.44-1.44v-59.21c0-.79.64-1.44,1.44-1.44h4.29c.57,0,1.08.33,1.31.85l22.33,50.02c.51,1.13,2.12,1.13,2.62,0l22.33-50.02c.23-.52.74-.85,1.31-.85h4.38c.79,0,1.44.64,1.44,1.44Z"/>
      <path class="cls-1" d="M441.96,90.56v20.27c0,.79.64,1.44,1.44,1.44h20.63c.79,0,1.44.64,1.44,1.44v2.27c0,.79-.64,1.44-1.44,1.44h-20.63c-.79,0-1.44.64-1.44,1.44v20.63c0,.79.64,1.44,1.44,1.44h23.29c.79,0,1.44.64,1.44,1.44v2.27c0,.79-.64,1.44-1.44,1.44h-29.5c-.79,0-1.44-.64-1.44-1.44v-59.21c0-.79.64-1.44,1.44-1.44h29.5c.79,0,1.44.64,1.44,1.44v2.27c0,.79-.64,1.44-1.44,1.44h-23.29c-.79,0-1.44.64-1.44,1.44Z"/>
      <path class="cls-1" d="M488.57,144.09c-3.05-1.39-5.45-3.34-7.19-5.84-1.42-2.04-2.31-4.28-2.64-6.71-.12-.87.54-1.65,1.42-1.65h3.64c.7,0,1.28.5,1.41,1.19.49,2.47,1.74,4.68,3.75,6.61,2.32,2.24,5.72,3.35,10.19,3.35,4.12,0,7.39-1.06,9.8-3.18,2.41-2.12,3.62-4.81,3.62-8.06,0-2.61-.67-4.72-2-6.32-1.34-1.6-2.99-2.79-4.97-3.57-1.98-.78-4.7-1.64-8.19-2.57-4.07-1.1-7.29-2.18-9.67-3.22-2.38-1.05-4.41-2.67-6.1-4.88-1.69-2.21-2.53-5.2-2.53-8.97,0-3.14.81-5.94,2.44-8.41,1.63-2.47,3.92-4.4,6.88-5.79,2.96-1.39,6.36-2.09,10.19-2.09,5.63,0,10.18,1.38,13.63,4.14,2.97,2.38,4.86,5.34,5.66,8.9.2.91-.47,1.77-1.4,1.77h-3.8c-.64,0-1.18-.44-1.35-1.05-.58-2.07-1.87-3.94-3.86-5.61-2.32-1.94-5.46-2.92-9.41-2.92-3.66,0-6.71.97-9.15,2.92-2.44,1.95-3.66,4.6-3.66,7.97,0,2.56.67,4.62,2,6.19,1.34,1.57,3.01,2.76,5.01,3.57,2,.81,4.72,1.69,8.15,2.61,3.95,1.1,7.14,2.19,9.58,3.27,2.44,1.08,4.5,2.72,6.19,4.92,1.68,2.21,2.53,5.17,2.53,8.89,0,2.85-.76,5.55-2.27,8.1-1.51,2.56-3.75,4.62-6.71,6.19-2.96,1.57-6.51,2.35-10.63,2.35s-7.54-.7-10.59-2.09Z"/>
      <path class="cls-1" d="M110.7,64.4c.15-4.85-2.74-5.02-5.21-4.84-3.09.22-7.5-1.23-7.38,4.26.15,7.38-.63,14.76-.82,22.14-.16,6.04-1.46,11.44-7.37,14.38-6.08,3.02-11.05-.01-15.79-3.4-7.74-5.54-15.43-11.15-24.14-17.47-1.35-.98-3.26-.06-3.33,1.61-.43,10.3-.62,19.52-1.05,29.1,3.48,2.3,7.12,4.68,11.19,5.99.23-5.54.55-11.22.81-17.3,5.42,3.83,9.71,7.1,14.23,10.01,14.72,9.47,31.31,3.44,36.26-13.25,3.02-10.19,2.29-20.78,2.62-31.22Z"/>
      <path class="cls-1" d="M91.08,52.45c-.31,12.11-.91,24.22-1.51,36.32-.09,1.79-1.48,3.3-3.27,3.4-.96.05-1.67-.32-2.59-.98-15.05-10.82-30.07-21.69-46.23-33.36-.62-.44-1.48-.02-1.51.73-.52,12.42-1.05,24.41-1.53,36.22-.04.98-1.35,1.27-1.8.4-3.58-6.95-5.47-14.9-5.12-23.28.44-10.53,4.34-20.09,10.56-27.65.32-.39.89-.45,1.3-.16,10.75,7.87,21.49,15.75,32.27,23.58,1.51,1.1,2.8,2.5,5.02,1.21,1.75-1.01,1.11-2.36,1.2-4.06.41-7.91.85-15.83.95-23.75.05-3.95,1.38-5.18,5.44-5.09,1.45.03,2.47.08,3.53.11,2.11.05,3.78,1.82,3.71,3.94l-.4,12.41Z"/>
      <path class="cls-1" d="M64.35,1.14C30.7,5.09,4.01,31.77.03,65.42c-.2,1.71,1.16,3.21,2.88,3.21h11.83c1.45,0,2.67-1.08,2.87-2.52,3.44-24.59,22.86-44.06,47.43-47.56,1.44-.2,2.51-1.42,2.51-2.87V4.03c0-1.72-1.5-3.08-3.21-2.88Z"/>
      <path class="cls-1" d="M65.05,129.29c-24.48-3.49-43.85-22.81-47.4-47.27-.21-1.43-1.42-2.5-2.87-2.5H2.9c-1.72,0-3.08,1.5-2.88,3.21,3.93,33.7,30.65,60.44,64.34,64.39,1.71.2,3.21-1.16,3.21-2.88v-12.07c0-1.45-1.08-2.67-2.51-2.87Z"/>
      <path class="cls-1" d="M128.36,82.02c-3.55,24.46-22.92,43.79-47.4,47.27-1.44.2-2.51,1.42-2.51,2.87v12.07c0,1.72,1.5,3.08,3.21,2.88,33.69-3.95,60.41-30.69,64.34-64.39.2-1.71-1.16-3.21-2.88-3.21h-11.89c-1.45,0-2.66,1.07-2.87,2.5Z"/>
      <path class="cls-1" d="M413.33,1.44v59.37c0,.79-.64,1.44-1.44,1.44h-7.34c-.79,0-1.44-.64-1.44-1.44V26.37c0-1.55-2.12-2-2.75-.58l-15.86,35.6c-.23.52-.74.85-1.31.85h-5.21c-.57,0-1.08-.33-1.31-.85l-15.95-35.64c-.63-1.41-2.75-.96-2.75.59v34.46c0,.79-.64,1.44-1.44,1.44h-7.34c-.79,0-1.44-.64-1.44-1.44V1.44C347.78.64,348.42,0,349.21,0h8.65c.57,0,1.08.33,1.31.85l20.16,45.02c.51,1.13,2.12,1.13,2.62,0L402.02.85C402.25.33,402.77,0,403.33,0h8.56c.79,0,1.44.64,1.44,1.44Z"/>
      <path class="cls-1" d="M436.6,1.44v59.37c0,.79-.64,1.44-1.44,1.44h-7.34c-.79,0-1.44-.64-1.44-1.44V1.44C426.39.64,427.03,0,427.82,0h7.34c.79,0,1.44.64,1.44,1.44Z"/>
      <path class="cls-1" d="M499.37,62.24h-7.99c-.48,0-.93-.24-1.2-.64l-27.61-41.78c-.79-1.19-2.63-.63-2.63.79v40.2c0,.79-.64,1.44-1.44,1.44h-7.32c-.79,0-1.44-.64-1.44-1.44V1.44C449.74.64,450.39,0,451.18,0h7.99c.48,0,.93.24,1.2.64l27.61,41.7c.79,1.19,2.63.63,2.63-.79V1.44C490.61.64,491.25,0,492.05,0h7.32c.79,0,1.44.64,1.44,1.44v59.37c0,.79-.64,1.44-1.44,1.44Z"/>
      <path class="cls-1" d="M550.3,49.54h-23.99c-.61,0-1.15.38-1.35.96l-3.8,10.78c-.2.57-.75.96-1.35.96h-7.58c-.99,0-1.69-.98-1.35-1.92L532.11.95C532.31.38,532.85,0,533.46,0h9.78c.61,0,1.15.38,1.35.95l21.24,59.37c.33.94-.36,1.92-1.35,1.92h-7.67c-.61,0-1.15-.38-1.35-.96l-3.8-10.78c-.2-.57-.75-.96-1.35-.96ZM547.79,39.31l-8.09-23.11c-.45-1.28-2.26-1.28-2.71,0l-8.16,23.11c-.33.93.36,1.91,1.35,1.91h16.24c.99,0,1.68-.98,1.36-1.91Z"/>
      <path class="cls-1" d="M253.09,42.34l-22.99-34.72-4.83-7.22c-.26-.25-.62-.4-.99-.4h-7.99c-.79,0-1.44.64-1.44,1.44v59.37c0,.79.64,1.44,1.44,1.44h7.32c.79,0,1.44-.64,1.44-1.44V20.61c0-1.42,1.85-1.98,2.63-.79l27.61,41.78c.27.4.72.64,1.2.64h7.99c.68,0,1.25-.47,1.4-1.11"/>
      <path class="cls-1" d="M265.91,20.5V2.18c0-1.2-.98-2.18-2.18-2.18h-5.84c-1.2,0-2.18.98-2.18,2.18v4.15c0,.89.26,1.76.76,2.5l8.07,12.08c.41.61,1.36.32,1.36-.41Z"/>
      <path class="cls-1" d="M331.07,16.13l-6.49,7.79c-.27.32-.37.73-.31,1.14.3,1.84.45,3.82.45,5.95,0,4.5-.7,8.38-2.09,11.62-1.4,3.25-3.39,5.73-5.98,7.44-2.59,1.71-5.74,2.56-9.44,2.56s-6.78-.85-9.4-2.56c-2.62-1.71-4.63-4.19-6.02-7.44-1.4-3.25-2.09-7.12-2.09-11.62s.7-8.45,2.09-11.67c1.4-3.22,3.4-5.67,6.02-7.35,2.62-1.68,5.75-2.52,9.4-2.52,3.19,0,5.98.63,8.36,1.88.59.31,1.31.17,1.74-.34l4.59-5.5c.58-.7.36-1.75-.45-2.17-.75-.39-1.52-.75-2.32-1.07-3.56-1.45-7.54-2.18-11.92-2.18s-8.36.73-11.92,2.18c-3.56,1.45-6.61,3.53-9.14,6.24-2.54,2.71-4.49,5.95-5.85,9.74-1.37,3.79-2.05,8.05-2.05,12.78s.68,8.92,2.05,12.73c1.37,3.82,3.32,7.09,5.85,9.83,2.53,2.73,5.58,4.83,9.14,6.28,3.56,1.45,7.53,2.18,11.92,2.18s8.36-.73,11.92-2.18c3.56-1.45,6.61-3.55,9.14-6.28,2.53-2.73,4.49-6.01,5.85-9.83,1.37-3.82,2.05-8.09,2.05-12.82s-.68-8.99-2.05-12.78c-.2-.57-.42-1.12-.65-1.66-.42-.98-1.72-1.17-2.4-.36Z"/>
      <path class="cls-1" d="M325.8,1.87h.47c1.18,0,2.15.96,2.15,2.15v14.98c0,1.18-.96,2.15-2.15,2.15h0c-1.44,0-2.62-1.17-2.62-2.62V4.01c0-1.18.96-2.15,2.15-2.15Z" transform="translate(94.13 -217.96) rotate(42.68)"/>
    </g>
  </g>
</svg>