<?xml version="1.0" encoding="UTF-8"?>
<svg id="Capa_2" data-name="Capa 2" xmlns="http://www.w3.org/2000/svg" viewBox="0 0 171.42 171.41">
  <defs>
    <style>
      .cls-1 {
        fill: #e8e9ee;
        stroke-width: 0px;
      }
    </style>
  </defs>
  <g id="Capa_1-2" data-name="Capa 1">
    <g>
      <path class="cls-1" d="M129.96,74.29c.18-5.69-3.22-5.89-6.12-5.68-3.63.25-8.8-1.45-8.67,5,.18,8.66-.74,17.33-.97,25.99-.18,7.09-1.72,13.43-8.66,16.88-7.13,3.54-12.97-.01-18.54-4-9.09-6.5-18.11-13.08-28.33-20.51-1.59-1.15-3.82-.07-3.9,1.89-.5,12.09-.73,22.92-1.23,34.16,4.08,2.7,8.36,5.49,13.13,7.03.27-6.5.65-13.18.95-20.31,6.36,4.49,11.4,8.34,16.71,11.76,17.28,11.12,36.75,4.04,42.56-15.56,3.55-11.96,2.69-24.39,3.07-36.65Z"/>
      <path class="cls-1" d="M106.92,60.26c-.36,14.22-1.06,28.43-1.77,42.64-.1,2.1-1.73,3.88-3.83,3.99-1.13.06-1.96-.38-3.04-1.16-17.67-12.7-35.3-25.46-54.27-39.16-.72-.52-1.74-.03-1.78.86-.61,14.58-1.23,28.66-1.8,42.53-.05,1.15-1.59,1.49-2.12.47-4.21-8.16-6.42-17.49-6.01-27.33.51-12.36,5.1-23.59,12.39-32.46.38-.46,1.05-.53,1.52-.18,12.62,9.24,25.22,18.49,37.88,27.68,1.78,1.29,3.28,2.93,5.89,1.42,2.05-1.19,1.31-2.77,1.41-4.76.49-9.29,1-18.58,1.12-27.88.06-4.64,1.62-6.08,6.39-5.97,1.7.04,2.9.1,4.14.13,2.48.06,4.43,2.14,4.35,4.62l-.47,14.57Z"/>
      <path class="cls-1" d="M75.55.02C36.04,4.66,4.7,35.98.04,75.48c-.24,2.01,1.36,3.77,3.39,3.77h13.89c1.71,0,3.13-1.27,3.37-2.96,4.03-28.87,26.84-51.73,55.69-55.83,1.69-.24,2.95-1.67,2.95-3.37V3.41c0-2.02-1.76-3.62-3.77-3.39Z"/>
      <path class="cls-1" d="M76.37,150.46c-28.73-4.09-51.47-26.78-55.64-55.49-.24-1.68-1.67-2.94-3.37-2.94H3.41c-2.02,0-3.62,1.76-3.39,3.77,4.61,39.56,35.98,70.95,75.53,75.59,2.01.24,3.77-1.36,3.77-3.39v-14.17c0-1.7-1.26-3.13-2.95-3.37Z"/>
      <path class="cls-1" d="M150.69,94.97c-4.16,28.71-26.91,51.4-55.64,55.49-1.69.24-2.95,1.67-2.95,3.37v14.17c0,2.02,1.76,3.62,3.77,3.39,39.55-4.64,70.92-36.03,75.53-75.59.23-2.01-1.36-3.77-3.39-3.77h-13.95c-1.7,0-3.12,1.26-3.37,2.94Z"/>
    </g>
  </g>
</svg>